<?xml version="1.0" standalone="no"?>
<!DOCTYPE svg PUBLIC "-//W3C//DTD SVG 1.1//EN" "http://www.w3.org/Graphics/SVG/1.1/DTD/svg11.dtd" >
<!--
2013-9-30: Created.
-->
<svg>
<metadata>
Created by iconfont
</metadata>
<defs>

<font id="iconfont" horiz-adv-x="1024" >
  <font-face
    font-family="iconfont"
    font-weight="500"
    font-stretch="normal"
    units-per-em="1024"
    ascent="896"
    descent="-128"
  />
    <missing-glyph />
    
    <glyph glyph-name="x" unicode="x" horiz-adv-x="1001"
d="M281 543q-27 -1 -53 -1h-83q-18 0 -36.5 -6t-32.5 -18.5t-23 -32t-9 -45.5v-76h912v41q0 16 -0.5 30t-0.5 18q0 13 -5 29t-17 29.5t-31.5 22.5t-49.5 9h-133v-97h-438v97zM955 310v-52q0 -23 0.5 -52t0.5 -58t-10.5 -47.5t-26 -30t-33 -16t-31.5 -4.5q-14 -1 -29.5 -0.5
t-29.5 0.5h-32l-45 128h-439l-44 -128h-29h-34q-20 0 -45 1q-25 0 -41 9.5t-25.5 23t-13.5 29.5t-4 30v167h911zM163 247q-12 0 -21 -8.5t-9 -21.5t9 -21.5t21 -8.5q13 0 22 8.5t9 21.5t-9 21.5t-22 8.5zM316 123q-8 -26 -14 -48q-5 -19 -10.5 -37t-7.5 -25t-3 -15t1 -14.5
t9.5 -10.5t21.5 -4h37h67h81h80h64h36q23 0 34 12t2 38q-5 13 -9.5 30.5t-9.5 34.5q-5 19 -11 39h-368zM336 498v228q0 11 2.5 23t10 21.5t20.5 15.5t34 6h188q31 0 51.5 -14.5t20.5 -52.5v-227h-327z" />
    

    
    <glyph glyph-name="home" unicode="&#58897;" d="M1008.812 296.73 545.318 760.302C536.614 769.006 524.554 774 512.238 774c-12.316 0-24.372-4.994-33.076-13.698L15.642 296.742c-18.186-18.16-18.194-47.738-0.002-65.946 8.832-8.82 19.928-13.68 31.244-13.68 11.314 0 22.41 4.86 31.242 13.68l58.998 61.458L137.124-120c0-25.738 28.3-54 54.076-54l645.75 0c23.568 0 39.402 21.7 39.402 54L876.352 290.978l62.806-60.34c10.134-9.974 24.578-13.534 34.746-13.534 12.656 0 25.354 5.106 34.014 13.706C1026.342 249.264 1026.738 278.84 1008.812 296.73zM436.058 100.158c0 13.226 20.094 19.386 33.672 19.386l88.06 0c14.85 0 19.616-4.71 19.616-19.386l0-180.836-141.348 0L436.058 100.158zM557.792 212.87l-88.06 0c-31.944 0-63.73-11.094-87.208-30.428-25.754-21.214-39.94-50.438-39.94-82.284l0-180.836-111.982 0L230.602 383.31 506.734 661.214l276.134-277.884 0-464.008-111.984 0 0 180.836C670.884 166.52 624.38 212.87 557.792 212.87z"  horiz-adv-x="1024" />

    
    <glyph glyph-name="back" unicode="&#58896;" d="M671.968-16c-12.288 0-24.576 4.672-33.952 14.048L286.048 350.01599999999996c-18.752 18.72-18.752 49.12 0 67.872l351.968 352c18.752 18.752 49.12 18.752 67.872 0 18.752-18.72 18.752-49.12 0-67.872l-318.016-318.048 318.016-318.016c18.752-18.752 18.752-49.12 0-67.872C696.544-11.327999999999975 684.256-16 671.968-16z"  horiz-adv-x="1024" />

    
    <glyph glyph-name="down-copy" unicode="&#58881;" d="M519.224 45.649c13.463-12.34 35.289-12.34 48.753 0l344.733 316.005c13.463 12.341 13.463 32.349 0 44.69s-35.289 12.34-48.753 0l-344.733-316.005h48.753l-344.733 316.005c-13.463 12.34-35.289 12.34-48.753 0-13.463-12.341-13.463-32.349 0-44.69l344.733-316.005zM519.224 361.655c13.463-12.34 35.289-12.34 48.753 0l344.733 316.005c13.463 12.341 13.463 32.349 0 44.69s-35.289 12.34-48.753 0l-344.733-316.005h48.753l-344.733 316.005c-13.463 12.34-35.289 12.34-48.753 0-13.463-12.341-13.463-32.349 0-44.69l344.733-316.005z"  horiz-adv-x="1127" />

    
    <glyph glyph-name="phonecircle" unicode="&#58961;" d="M512.001 853.333c63.767 0 124.597-12.385 182.487-37.16 57.885-24.777 107.77-58.112 149.67-100.01s75.23-91.79 100.01-149.672c24.775-57.882 37.16-118.712 37.16-182.487 0-63.772-12.385-124.602-37.16-182.482-24.78-57.89-58.11-107.78-100.01-149.68-41.9-41.89-91.79-75.23-149.67-100.01-57.885-24.77-118.72-37.16-182.487-37.16-63.775 0-124.6 12.39-182.487 37.16-57.887 24.78-107.775 58.12-149.672 100.01-41.897 41.9-75.232 91.8-100.01 149.68-24.775 57.88-37.165 118.71-37.165 182.477 0 63.775 12.385 124.6 37.16 182.487 24.777 57.887 58.112 107.775 100.01 149.672s91.79 75.232 149.672 100.01C387.392 840.943 448.226 853.333 512.001 853.333zM512.001 767.998c-51.997 0-101.72-10.167-149.16-30.505-47.442-20.337-88.28-47.615-122.497-81.832-34.222-34.222-61.495-75.055-81.837-122.502-20.342-47.445-30.505-97.16-30.505-149.16 0-51.987 10.167-101.717 30.505-149.157 20.337-47.45 47.615-88.28 81.832-122.5 34.217-34.23 75.05-61.5 122.497-81.83 47.445-20.34 97.165-30.51 149.165-30.51 51.997 0 101.717 10.17 149.157 30.51 47.45 20.34 88.28 47.61 122.5 81.83 34.225 34.21 61.5 75.05 81.83 122.5 20.34 47.44 30.51 97.16 30.51 149.157 0 51.992-10.17 101.72-30.51 149.16-20.34 47.447-47.61 88.28-81.83 122.497s-75.05 61.495-122.5 81.832C613.718 757.83 563.999 767.998 512.001 767.998L512.001 767.998zM570.69056 251.392c0 0-35.18976 0.71168-107.0336 82.48832C391.77728 415.65184 395.60192 450.6368 395.60192 450.6368l59.76576 52.49024c-5.69856 57.47712-32.79872 149.51936-98.53952 132.89984-64.77312-15.872-93.98784-103.78752-78.66368-160.48128 76.6208-270.54592 295.59808-338.39616 329.52832-343.13728 81.2288-13.93152 137.09824 33.85856 152.39168 110.72 0 0-79.2832 57.91232-119.97184 69.21216L570.69056 251.392z"  horiz-adv-x="1024" />

    
    <glyph glyph-name="tudi" unicode="&#59024;" d="M1425.794442 654.341632c17.365038-121.60143-226.060262-724.675018-395.597589-776.36722C860.739268-173.707297 19.847556 124.259959 2.178237 259.484812-36.226301 553.284459 450.429138 859.570145 665.279245 892.117786c195.497796 29.620242 743.148061-116.172626 760.515197-237.776154zM511.371501 689.655089c-66.027014-73.866987 224.664764-105.791376 259.396937-100.93756 34.809818 4.941953 150.042318 140.311602 125.949509 155.078704-17.931631 11.050669-144.911501 39.993098-208.170601 53.971166a88.575332 88.575332 0 0 1-70.089698-14.269759 621.657851 621.657851 0 0 1-107.077753-93.84465m389.109046-70.704557C854.051368 543.29143 1119.857106 478.714476 1148.5687 476.091358c29.200543-2.669284 79.52033 46.21933 100.370966 65.892711 21.005925 19.704858 28.317078 49.239062 10.866002 76.97066-14.355797 22.909259-186.07346 83.167513-245.2363 103.392797a37.401458 37.401458 0 0 1-37.936574-8.629007c-18.124692-16.850907-47.40288-47.910716-76.133361-94.76379m-38.587107-491.635166c24.502015-3.55275 49.090069 5.638653 66.91048 25.020344 44.807043 48.731227 130.171679 145.53895 161.56305 208.298609a35.166562 35.166562 0 0 1-6.396209 40.343546c-55.10855 52.911427-211.496714 84.779156-275.089475 95.875993a56.48726 56.48726 0 0 1-48.932682-15.640076c-94.551842-90.373741-164.158887-154.084018-184.877318-222.121389-6.715181-22.009005 4.150821-45.919245 23.763345-52.911427 61.276024-21.836928 199.959194-69.699378 263.058809-78.8656zM195.604819 438.603862c-142.697589-142.722771 132.834668-181.225939 200.020051-177.19683 53.117079 3.147741 225.248145 201.805869 238.242019 241.23657 11.403216 34.322967-179.125346 85.224037-227.869164 97.645023a30.671588 30.671588 0 0 1-22.972213-3.229582c-23.06035-13.210019-81.446748-52.491728-187.406003-158.455181m0 0"  horiz-adv-x="1426" />

    
    <glyph glyph-name="dikuaiqingkuang" unicode="&#59012;" d="M128 742.2464v-281.2928c0 0.1024 307.0464-0.1536 307.0464-0.1536-0.1024 0 0.1536 307.0464 0.1536 307.0464 0-0.1024-281.4464 0.1536-281.4464 0.1536a25.3952 25.3952 0 0 1-25.7536-25.7536z m-51.2 0c0 42.6496 34.048 76.9536 76.9536 76.9536h281.2928c28.2624 0 51.3536-23.296 51.3536-51.3536v-306.8928c0-28.2624-23.296-51.3536-51.3536-51.3536H128.1536A51.6096 51.6096 0 0 0 76.8 460.9536V742.2464zM588.8 460.9536c0 0.1024 307.0464-0.1536 307.0464-0.1536-0.1024 0 0.1536 281.4464 0.1536 281.4464a25.3952 25.3952 0 0 1-25.7536 25.7536h-281.2928c0.1024 0-0.1536-307.0464-0.1536-307.0464z m-51.2 306.8928c0 28.2624 23.296 51.3536 51.3536 51.3536h281.2928c42.6496 0 76.9536-34.048 76.9536-76.9536v-281.2928c0-28.2624-23.296-51.3536-51.3536-51.3536h-306.8928A51.6096 51.6096 0 0 0 537.6 460.9536V767.8464zM128 25.7536c0-14.5408 11.264-25.7536 25.7536-25.7536h281.2928c-0.1024 0 0.1536 307.0464 0.1536 307.0464 0-0.1024-307.0464 0.1536-307.0464 0.1536 0.1024 0-0.1536-281.4464-0.1536-281.4464z m-51.2 281.2928c0 28.2624 23.296 51.3536 51.3536 51.3536h306.8928c28.2624 0 51.3536-23.296 51.3536-51.3536v-306.8928c0-28.2624-23.296-51.3536-51.3536-51.3536H153.7536A76.5952 76.5952 0 0 0 76.8 25.7536v281.2928zM588.8 0.1536c0 0.1024 281.4464-0.1536 281.4464-0.1536 14.5408 0 25.7536 11.264 25.7536 25.7536v281.2928c0-0.1024-307.0464 0.1536-307.0464 0.1536 0.1024 0-0.1536-307.0464-0.1536-307.0464z m-51.2 306.8928c0 28.2624 23.296 51.3536 51.3536 51.3536h306.8928c28.2624 0 51.3536-23.296 51.3536-51.3536v-281.2928c0-42.6496-34.048-76.9536-76.9536-76.9536h-281.2928a51.6096 51.6096 0 0 0-51.3536 51.3536v306.8928z"  horiz-adv-x="1024" />

    
    <glyph glyph-name="up" unicode="&#58899;" d="M504.776 722.351c-13.463 12.34-35.289 12.34-48.754 0l-344.733-316.005c-13.463-12.341-13.463-32.349 0-44.691s35.289-12.34 48.754 0l344.733 316.005h-48.754l344.733-316.005c13.463-12.34 35.289-12.34 48.754 0 13.463 12.341 13.463 32.349 0 44.691l-344.733 316.005zM504.776 406.345c-13.463 12.34-35.289 12.34-48.754 0l-344.733-316.005c-13.463-12.341-13.463-32.349 0-44.691s35.289-12.34 48.754 0l344.733 316.005h-48.754l344.733-316.005c13.463-12.34 35.289-12.34 48.754 0 13.463 12.341 13.463 32.349 0 44.691l-344.733 316.005z"  horiz-adv-x="1127" />

    
    <glyph glyph-name="xinxi" unicode="&#58890;" d="M575.330779 614.042565l-15.522249-296.161705c-0.414867-13.665224-5.181609-25.052911-14.286115-34.154594-9.112972-9.11015-20.170458-13.65958-33.217614-13.65958-13.041512 0-24.011509 4.34623-32.90717 13.03869-8.906949 8.69246-13.766824 20.277703-14.590915 34.767017l-16.145962 296.161705c-0.832557 15.72545 5.280387 30.20912 18.316255 43.4623 13.03869 13.24189 28.038828 19.86848 45.014524 19.86848 16.975697 0 31.975835-6.519345 45.014525-19.558035 13.03869-13.035868 19.151634-27.621138 18.324721-43.764278zM512.002822 212.326739c16.549541 0 30.832833-5.898455 42.84141-17.695365 12.005755-11.805377 18.008632-25.970135 18.008632-42.530964 0-16.549541-6.002877-30.937255-18.008632-43.151855-12.008577-12.203311-26.283402-18.316255-42.84141-18.316255-16.560829 0-30.734055 6.0057-42.528142 18.00581-11.799732 12.011399-17.698187 26.396291-17.698187 43.151855 0 16.76403 5.898455 31.0445 17.698187 42.844231 11.794088 11.794088 25.967313 17.692543 42.528142 17.692543zM512 844.000463c-254.054074 0-460.000463-205.952033-460.000463-460.000463 0-254.054074 205.949211-460.000463 460.000463-460.000463 254.051252 0 460.000463 205.949211 460.000463 460.000463 0 254.051252-205.949211 460.000463-460.000463 460.000463z m0-840.002073c-209.869285 0-380.00161 170.129503-380.00161 380.00161 0 209.866462 170.132325 380.00161 380.00161 380.00161s379.998787-170.132325 379.998787-380.00161c0-209.869285-170.129503-380.00161-379.998787-380.00161z"  horiz-adv-x="1024" />

    
    <glyph glyph-name="dingwei-copy" unicode="&#58880;" d="M512 92.59000000000003c12.329 0 268.928 385.992 268.928 534.482C780.928 775.562 660.49 896 512 896S243.072 775.562 243.072 627.072 499.671 92.59000000000003 512 92.59000000000003zM384.87 627.072c0 70.195 56.935 127.13 127.13 127.13 70.2 0 127.13-56.935 127.13-127.13 0-70.2-56.935-127.13-127.13-127.13s-127.13 56.93-127.13 127.13zM706.391 159.34000000000003c58.48-19.672 95.222-48.088 95.222-79.688 0-59.387-129.7-107.546-289.613-107.546S222.387 20.25999999999999 222.387 79.65200000000004c0 31.6 36.741 60.011 95.222 79.688-119.112-26.43-199.475-76.386-199.475-133.658C118.134-59.17700000000002 294.528-128 512-128c217.472 0 393.866 68.823 393.866 153.687 0 57.267-80.363 107.223-199.475 133.653z"  horiz-adv-x="1024" />

    
    <glyph glyph-name="user" unicode="&#59120;" d="M815.815 596.65c0-165.307-134.012-299.351-299.351-299.351s-299.35 134.012-299.35 299.35C217.113 761.956 351.124 896 516.463 896s299.35-134.012 299.35-299.35zM763.528 283.22c-69.758-55.071-156.219-85.662-247.064-85.662-91.901 0-179.195 31.295-249.272 87.421C82.493 217.173 0-19.779 0-128h1027.712c0 107.26-83.134 342.55-264.184 411.187z"  horiz-adv-x="1028" />

    
    <glyph glyph-name="yongjinbili" unicode="&#58898;" d="M512-75.776a459.776 459.776 0 1 0 0 919.552h12.4928v-421.888h445.44c0-12.4928 1.8432-24.7808 1.8432-37.2736A459.776 459.776 0 0 0 512-75.776z m-37.2736 447.2832V792.1664A409.6 409.6 0 1 1 921.6 371.5072zM573.44 788.8896V839.0656a459.5712 459.5712 0 0 0 389.12-368.64h-49.9712A409.6 409.6 0 0 1 573.44 788.8896z m0 0"  horiz-adv-x="1024" />

    
    <glyph glyph-name="qiye" unicode="&#58969;" d="M992-128H32c-19.2 0-32 12.8-32 32s12.8 32 32 32h960c19.2 0 32-12.8 32-32s-12.8-32-32-32zM601.6-128c-19.2 0-32 12.8-32 32V832H128v-928c0-19.2-12.8-32-32-32s-32 12.8-32 32V864c0 19.2 12.8 32 32 32h512c19.2 0 32-12.8 32-32v-960c-6.4-19.2-19.2-32-38.4-32zM928-128c-19.2 0-32 12.8-32 32V345.6L588.8 550.4c-19.2 12.8-19.2 32-12.8 44.8 12.8 12.8 32 19.2 44.8 6.4L960 384v-480c0-19.2-12.8-32-32-32zM480 576h-256c-19.2 0-32 12.8-32 32s12.8 32 32 32h256c12.8 0 32-12.8 32-32s-19.2-32-32-32zM480 384h-256c-19.2 0-32 12.8-32 32s12.8 32 32 32h256c19.2 0 32-12.8 32-32s-12.8-32-32-32zM480 192h-256c-19.2 0-32 12.8-32 32s12.8 32 32 32h256c19.2 0 32-12.8 32-32s-12.8-32-32-32zM800 192h-64c-19.2 0-32 12.8-32 32s12.8 32 32 32h64c19.2 0 32-12.8 32-32s-12.8-32-32-32z"  horiz-adv-x="1024" />

    
    <glyph glyph-name="area" unicode="&#58980;" d="M947.934 640.36c16.063 0 29.06 12.999 29.06 29.06V822.985c0 16.063-12.997 29.06-29.06 29.06h-153.6c-16.035 0-29.06-12.997-29.06-29.06v-47.734h-94.338a29.189 29.189 0 0 1-8.865 0H258.728V822.984c0 16.063-13.027 29.06-29.062 29.06H76.068c-16.064 0-29.063-12.997-29.063-29.06v-153.563c0-16.063 12.999-29.06 29.063-29.06h47.737v-506.582H76.068c-16.064 0-29.063-12.997-29.063-29.06v-153.563c0-16.063 12.999-29.06 29.063-29.06h153.598c16.035 0 29.062 12.997 29.062 29.06V-1.1100000000000136h506.545v-47.735c0-16.063 13.026-29.06 29.06-29.06h153.6c16.063 0 29.06 12.997 29.06 29.06V104.71799999999996c0 16.063-12.997 29.06-29.06 29.06h-47.738v407.64c0.05 0.984 0.05 1.97 0 2.955V640.36h47.739zM823.397 793.924h95.473v-95.442h-95.473v95.442zM181.93 436.08a29.207 29.207 0 0 1 4.825 3.89l277.169 277.16h132.079L181.929 303.07000000000005V436.079z m-76.8 357.844h95.474v-46.628c-0.014-0.367-0.028-0.735-0.028-1.106s0.015-0.739 0.028-1.106v-46.602H105.13v95.442z m124.537-153.562c16.035 0 29.062 12.998 29.062 29.06v47.707h123.003L181.93 517.3340000000001V640.36h47.737z m-47.737-419.477l496.265 496.244h87.08v-35.607L217.51 133.77999999999997h-35.581v87.105z m-76.8-240.668v95.441h95.474v-46.6c-0.014-0.367-0.028-0.736-0.028-1.106s0.015-0.739 0.028-1.106v-46.628H105.13zM842.072 342.25L563.785 63.976999999999975a29.044 29.044 0 0 1-5.148-6.965H426.366L842.07 472.7v-130.449z m76.8-362.035h-95.474v95.441h95.473v-95.441zM794.333 133.779c-16.035 0-29.06-12.997-29.06-29.06v-47.706H639.011l203.061 203.051V133.77999999999997h-47.738z m47.737 421.109L344.174 57.011999999999944h-85.446v35.795L806.304 640.36h35.767v-85.472z"  horiz-adv-x="1024" />

    
    <glyph glyph-name="fenchengbili" unicode="&#58954;" d="M575.5 869c-17.3 0-31.4-14-31.4-31.2V439c0-17.2 14.1-31.2 31.4-31.2h401.1c17.3 0 31.4 14 31.4 31.2 0 237.1-194 430-432.5 430z m31.4-398.8V805.3c178.8-15 321.9-157.2 337-335.1h-337zM837.2 315c0-208.7-170.8-378.6-380.7-378.6S75.8 106.3 75.8 315c0 208.7 170.8 378.6 380.7 378.6h31.4V756h-31.4C211.9 756 13 558.2 13 315s198.9-441 443.5-441C701-126 900 71.8 900 315v31.2h-62.8V315z"  horiz-adv-x="1024" />

    
    <glyph glyph-name="password" unicode="&#59009;" d="M780.808192 541.40928h-115.195904v42.891264c0 72.329216-19.851264 193.314816-153.612288 193.314816-138.868736 0-153.61024-135.047168-153.61024-193.314816v-42.891264h-115.197952v42.891264C243.191808 773.748736 348.778496 896 512 896c163.219456 0 268.808192-122.251264 268.808192-311.699456v-42.891264z m-192.002048-314.841088c0 43.524096-34.596864 78.655488-76.806144 78.655488-42.235904 0-76.781568-35.131392-76.781568-78.655488 0-29.462528 15.374336-54.470656 38.438912-67.805184v-89.649152c0-21.725184 17.250304-39.702528 38.38976-39.702528 21.141504 0 38.391808 17.975296 38.391808 39.702528v89.649152c22.990848 13.334528 38.367232 38.342656 38.367232 67.805184z m307.2 157.431808v-393.61536c0-65.24928-51.867648-118.38464-115.197952-118.38464H243.191808c-63.281152 0-115.197952 53.133312-115.197952 118.38464V384c0 65.2288 51.867648 118.38464 115.197952 118.38464h537.616384c63.330304 0 115.197952-53.15584 115.197952-118.38464z m0 0"  horiz-adv-x="1024" />

    
    <glyph glyph-name="gonggao" unicode="&#58934;" d="M548.096 784.384c-13.824 6.656-29.696 4.608-41.472-5.632l-223.744-193.536-178.176 0.512c-10.24 0-20.48-4.096-27.136-11.776-7.168-7.68-11.776-17.92-11.264-28.672l-1.024-323.072c0-10.752 4.096-20.992 11.264-28.672 7.168-7.68 17.408-11.776 27.648-11.776h180.224l222.208-192.512c11.264-10.24 27.648-12.288 41.472-5.632 13.824 7.168 22.528 20.992 22.528 36.864V748.032c0 15.36-8.704 29.184-22.528 36.352z m150.528-202.24c-9.216 4.608-19.968 5.12-29.696 1.536s-17.408-10.752-21.504-20.48c-9.216-19.968-1.536-43.52 17.92-53.76 2.56-1.536 60.416-32.768 60.416-122.368 0-95.744-54.272-127.488-56.32-128.512-19.456-10.752-27.136-34.304-17.408-54.272 6.656-14.336 20.48-22.528 34.816-22.528 6.144 0 11.776 1.536 17.408 4.096 4.096 2.048 99.328 53.248 99.328 200.704 0 142.848-100.864 193.536-104.96 195.584z m120.832 118.784c-8.704 5.632-19.456 7.68-29.184 5.12-10.24-2.048-18.944-8.704-24.064-17.408-11.776-18.432-6.656-43.008 11.264-55.808 4.096-3.072 103.936-73.728 103.936-249.344 0-176.128-95.744-246.784-99.328-249.344-17.92-12.8-22.528-37.376-10.752-56.32 5.632-8.704 14.336-14.848 24.576-17.408 10.24-2.048 20.992 0 29.184 6.144 5.632 3.584 133.632 95.232 133.632 316.928 0 222.208-133.632 313.856-139.264 317.44z"  horiz-adv-x="1024" />

    
    <glyph glyph-name="shui" unicode="&#58948;" d="M926.655039 892.601397H98.692155C44.472706 892.601397 3.010774 851.139466 3.010774 796.920016v-829.238635c0-54.219449 41.461932-95.681381 95.681381-95.681381h829.238635c54.219449 0 95.681381 41.461932 95.681381 95.681381V795.644265s0 96.957133-96.957132 96.957132z m33.169545-96.957132v-827.962884c0-19.136276-12.757517-31.893794-31.893794-31.893794H98.692155c-19.136276 0-31.893794 12.757517-31.893794 31.893794v829.238635c0 19.136276 12.757517 31.893794 31.893794 31.893794h828.284373c32.934807 0 32.848056-33.169545 32.848056-33.169545zM984.727258 795.644265h31.633541M869.322755 795.644265M223.669899 282.81247399999995c38.231728 64.491802 66.420739 132.458752 84.577238 203.905954H236.412108v39.390111H315.774072V609.527394c-23.172755-1.928937-47.309978-3.862976-72.411669-5.791913a259.094974 259.094974 0 0 1-8.690421 40.548493c71.059372 3.475148 135.939003 9.654889 194.638893 18.539225l9.26706-39.390111a2440.640667 2440.640667 0 0 0-82.260472-9.848804v-87.470642h77.045199v-39.390111H356.322566v-51.55568l24.907777 16.799099a1305.364496 1305.364496 0 0 0 55.607467-83.418855l-35.914963-23.172755a1092.416015 1092.416015 0 0 1-44.605384 75.886817v-293.698464H315.774072V403.299572c-18.927053-64.109077-42.865259-120.88003-71.829926-170.307755a1247.333101 1247.333101 0 0 1-20.274247 49.820657zM452.48363 583.461234h309.91582v-232.293981h-42.865259v21.432629h-52.714062v-158.723929c0-21.621441 9.460975-32.434712 28.388028-32.434712h18.534121c18.92195 0 29.54641 10.425443 31.863176 31.281432 1.928937 20.850887 3.475148 45.763767 4.63353 74.728435 11.971654-5.409187 26.453988-11.588929 43.447002-18.539225-2.704594-30.117947-5.603102-55.607467-8.690421-76.463456-5.409187-35.527135-26.260074-53.290702-62.562866-53.290702h-39.390111c-39.395214 0-59.087718 22.009269-59.087718 66.038013v167.41435h-47.503892c-1.163486-114.31246-49.238914-196.379018-144.241595-246.194572-7.338124 12.742208-16.610288 26.06616-27.806285 39.966751 85.347792 40.160665 128.406965 108.908375 129.177519 206.227821H495.348888v-21.432629h-42.865258V583.461234z m24.331137 86.8889l36.496706 20.274247c22.397098-26.260074 42.089602-52.132319 59.082615-77.621839l-39.390111-23.749395c-15.834631 26.647902-34.567769 53.67853-56.18921 81.096987z m242.719424-127.437393H495.348888V413.153479h224.185303V542.912741z m13.905694 129.177518c-18.539224-28.194114-39.012488-56.770953-61.404483-85.73562l-37.655088 22.591012c26.647902 31.281433 46.534321 59.087718 59.664357 83.418855l39.395214-20.274247z"  horiz-adv-x="1027" />

    
    <glyph glyph-name="tudi1" unicode="&#58921;" d="M932.977778 600.177778C822.044444 671.288889 512 748.088889 415.288889 694.044444c0 0-147.911111-62.577778-301.511111-221.866666-156.444444-162.133333 51.2-258.844444 51.2-258.844445S625.777778-48.355556 768 105.244444c116.622222 128 273.066667 426.666667 164.977778 494.933334zM483.555556 659.911111l108.088888-34.133333c19.911111-5.688889 25.6-34.133333 11.377778-48.355556L540.444444 517.688889c-8.533333-8.533333-19.911111-8.533333-31.288888-5.688889L409.6 554.666667c-19.911111 8.533333-22.755556 34.133333-8.533333 48.355555l56.888889 48.355556c5.688889 11.377778 14.222222 11.377778 25.6 8.533333zM164.977778 398.222222l119.466666 122.311111c8.533333 8.533333 22.755556 11.377778 31.288889 5.688889l110.933334-54.044444c17.066667-8.533333 22.755556-31.288889 8.533333-45.511111L312.888889 298.666667c-8.533333-8.533333-22.755556-11.377778-34.133333-5.688889L170.666667 352.711111c-14.222222 11.377778-17.066667 34.133333-5.688889 45.511111z m415.288889-190.577778l-122.311111 54.044445c-28.444444 11.377778-34.133333 48.355556-14.222223 68.266667l102.4 108.088888c11.377778 11.377778 28.444444 17.066667 45.511111 11.377778l125.155556-42.666666c28.444444-8.533333 36.977778-45.511111 17.066667-68.266667L625.777778 219.022222c-8.533333-14.222222-28.444444-19.911111-45.511111-11.377778z m204.8 256l-108.088889 31.288889c-19.911111 5.688889-25.6 31.288889-14.222222 45.511111l36.977777 42.666667c8.533333 8.533333 19.911111 11.377778 31.288889 8.533333l96.711111-39.822222c17.066667-8.533333 22.755556-28.444444 11.377778-42.666666l-25.6-34.133334c-5.688889-11.377778-17.066667-14.222222-28.444444-11.377778z"  horiz-adv-x="1024" />

    
    <glyph glyph-name="beizhu" unicode="&#59025;" d="M232.896816 800.086533h558.196135c45.691645 0 82.71998-37.246299 82.71998-83.217306v-665.748687c0-45.968961-37.028335-83.208097-82.71998-83.208097L232.896816 439.472406c-45.684482 0-82.709747 37.240159-82.709747 83.239819V716.868203c-0.001023 45.971008 37.026288 83.21833 82.709747 83.21833zM791.092951-57.670212a25.596981 25.596981 0 0 0-16.510022 6.039554L223.004515 414.340005c-55.093782 5.036713-98.400101 51.718919-98.400101 108.371197V716.868203c0 59.993372 48.580438 108.800985 108.292402 108.800985h558.196135c59.718103 0 108.302635-48.807612 108.302635-108.800985v-665.748686c0.001023-59.987233-48.583508-108.789729-108.302635-108.789729zM232.896816 774.503878c-31.499411 0-57.127092-25.855878-57.127092-57.634651v-194.155979c0-31.791054 25.62768-57.657164 57.127092-57.657164a25.598005 25.598005 0 0 0 16.510022-6.03853L799.683607-5.854079c27.445072 4.191462 48.546669 28.145014 48.546669 56.975643V716.868203c0 31.780821-25.631774 57.634652-57.138348 57.634652H232.896816v0.001023zM232.900909 800.086533H791.098068c45.685505 0 82.71998-37.240159 82.719979-83.208097v-254.263961c-0.980327-15.431457-12.817933-25.532513-82.719979-83.171258L232.900909-32.087557c-45.684482 0-82.71998 37.239136-82.71998 83.209121V716.878436c0 45.968961 37.036521 83.208097 82.71998 83.208097zM232.900909-57.670212c-59.718103 0-108.302635 48.804543-108.302635 108.791776V716.878436c0 59.987233 48.584532 108.790752 108.302635 108.790752H791.098068c59.71708 0 108.302635-48.803519 108.302634-108.790752v-254.263961c0-0.539282-0.01842-1.081635-0.052188-1.620917-1.101077-17.339924-10.023284-29.470195-23.080672-42.351573-12.545734-12.373819-33.29736-29.583782-68.896136-58.936297-0.357134-0.295735-0.721431-0.579191-1.092891-0.853438L248.081657-52.678524a25.580608 25.580608 0 0 0-15.180748-4.991688z m0 832.17409c-31.505551 0-57.137325-25.850761-57.137325-57.625442v-665.755849c0-29.143761 21.556968-53.299927 49.433876-57.105603L775.359618 399.621792c38.566364 31.798217 69.073168 56.976666 72.877821 64.48978v252.766864c0 31.775704-25.631774 57.625442-57.137325 57.625442H232.900909z"  horiz-adv-x="1024" />

    
    <glyph glyph-name="jiazhi" unicode="&#58928;" d="M512-124.604642c-136.014043 0-263.839282 52.927638-360.107665 149.196021C55.623952 120.859762 2.696314 248.685001 2.696314 384.699044c0 136.014043 52.927638 264.039009 149.196021 360.107666C248.160718 841.075093 375.985957 894.002731 512 894.002731c136.014043 0 263.839282-52.927638 360.107665-149.196021C968.376048 648.738053 1021.303686 520.713088 1021.303686 384.699044c0-136.014043-52.927638-263.839282-149.196021-360.107665C775.839282-71.677004 648.014043-124.604642 512-124.604642z m0 944.109226c-58.519992 0-115.641896-11.384435-169.168715-34.153306-51.729276-21.969963-98.265652-53.327092-138.211039-93.272479-39.945387-39.945387-71.302516-86.481763-93.272479-138.21104-22.569144-53.726546-34.153306-110.648722-34.153306-169.168715 0-58.719719 11.384435-115.641896 34.153306-169.168714 21.969963-51.729276 53.327092-98.265652 93.272479-138.21104 39.945387-39.945387 86.481763-71.302516 138.211039-93.272479 53.726546-22.569144 110.648722-34.153306 169.168715-34.153306 58.719719 0 115.641896 11.384435 169.168715 34.153306 51.729276 21.770236 98.265652 53.127365 138.211039 93.272479 39.945387 39.945387 71.302516 86.481763 93.272479 138.21104 22.569144 53.526819 34.153306 110.448996 34.153306 169.168714 0 58.519992-11.384435 115.442169-34.153306 169.168715-21.969963 51.729276-53.327092 98.265652-93.272479 138.21104-39.945387 39.945387-86.481763 71.302516-138.211039 93.272479-53.726546 22.569144-110.648722 34.153306-169.168715 34.153306z m0-744.38229c-21.770236 0-39.346206 17.775697-39.346206 39.545933v97.466745h-147.797933c-21.770236 0-39.346206 17.775697-39.346206 39.545933s17.775697 39.346206 39.346206 39.346206h147.797933v83.885313h-147.797933c-21.770236 0-39.346206 17.775697-39.346206 39.545934s17.775697 39.346206 39.346206 39.346206h157.384826L327.652038 584.42598c-7.989077 6.790716-12.982251 16.377609-13.781158 26.76341-0.798908 10.585528 2.396723 20.771601 9.187439 28.760678 7.589624 8.787985 18.374878 13.980886 30.158767 13.980886 9.387166 0 18.374878-3.395358 25.365321-9.387166l133.417593-113.045446 133.417593 113.045446c7.19017 5.991808 16.177882 9.387166 25.365321 9.387166 11.584162 0 22.569144-4.993173 30.158767-13.980886 6.790716-7.989077 10.186074-18.175151 9.187439-28.760678-0.798908-10.585528-5.792081-19.972694-13.781158-26.76341l-154.588649-131.02087h157.384826c21.770236 0 39.346206-17.57597 39.346206-39.346206 0-21.770236-17.57597-39.545933-39.346206-39.545933h-147.598206v-83.885314h147.598206c21.770236 0 39.346206-17.57597 39.346206-39.346206 0-21.770236-17.57597-39.545933-39.346206-39.545933h-147.598206v-97.267018c-0.199727-21.570509-17.775697-39.346206-39.545933-39.346206z"  horiz-adv-x="1024" />

    
    <glyph glyph-name="beizhu1" unicode="&#58903;" d="M877.102545 818.082909h-99.746909v44.683636A33.326545 33.326545 0 0 1 744.122182 896a33.326545 33.326545 0 0 1-33.186909-33.233455v-44.683636H345.506909v44.683636A33.326545 33.326545 0 0 1 312.273455 896a33.326545 33.326545 0 0 1-33.18691-33.233455v-44.683636H146.106182A99.746909 99.746909 0 0 1 46.545455 718.522182v-731.042909c0-54.644364 44.544-99.514182 99.560727-99.514182h730.996363a99.746909 99.746909 0 0 1 99.560728 99.514182V718.522182a99.746909 99.746909 0 0 1-99.560728 99.560727z m33.140364-830.603636c0-18.152727-14.987636-33.047273-33.140364-33.047273H146.152727a33.28 33.28 0 0 0-33.140363 33.047273V718.522182c0 18.152727 14.987636 33.093818 33.140363 33.093818h132.980364v-9.402182c0-18.245818 14.894545-33.186909 33.186909-33.186909a33.326545 33.326545 0 0 1 33.233455 33.186909v9.402182h365.381818v-9.402182c0-18.245818 14.987636-33.186909 33.233454-33.186909a33.326545 33.326545 0 0 1 33.233455 33.186909v9.402182h99.746909c18.152727 0 33.093818-14.987636 33.093818-33.047273V-12.567273zM777.774545 584.610909H246.225455a33.326545 33.326545 0 0 1-33.233455-33.233454c0-18.292364 14.987636-33.233455 33.233455-33.233455H777.774545a33.326545 33.326545 0 0 1 33.233455 33.233455 33.326545 33.326545 0 0 1-33.233455 33.233454z m0-199.354182H246.225455a33.326545 33.326545 0 0 1-33.233455-33.186909c0-18.292364 14.987636-33.233455 33.233455-33.233454H777.774545a33.326545 33.326545 0 0 1 33.233455 33.233454 33.326545 33.326545 0 0 1-33.233455 33.186909zM512 185.949091H246.272a33.326545 33.326545 0 0 1-33.233455-33.186909c0-18.292364 14.987636-33.233455 33.233455-33.233455h265.774545a33.326545 33.326545 0 0 1 33.18691 33.233455 33.326545 33.326545 0 0 1-33.233455 33.186909z"  horiz-adv-x="1024" />

    


  </font>
</defs>
</svg>
